<?xml version="1.0" encoding="UTF-8"?>
<svg id="Layer_2" data-name="Layer 2" xmlns="http://www.w3.org/2000/svg" viewBox="0 0 626 626">
  <defs>
    <style>
      .cls-1 {
        fill: #030391;
      }

      .cls-1, .cls-2 {
        stroke-width: 0px;
      }

      .cls-2 {
        fill: #fff;
      }
    </style>
  </defs>
  <g id="Layer_1-2" data-name="Layer 1">
    <g>
      <path class="cls-2" d="M183.4,626c-12.11,0-19.98-7.96-20.04-20.27-.05-8.74-.4-17.9-1.04-27.23-2.34-33.81-17.28-61.95-45.68-86.03-23.84-20.22-51.11-30.05-83.35-30.05-1.05,0-2.1.01-3.16.03-2.21.04-4.15.16-5.86.26-1.79.11-3.34.2-4.86.2h-.04c-2.18,0-8.64-.03-13.62-5.03C.03,452.15.05,445.11.08,432.32c.08-31.03.06-62.6.04-93.12,0-11.27-.02-22.55-.02-33.82,0-6.64,0-12.92,5.07-18.03,4.97-5.01,10.92-5.16,17.81-5.33h.32c4.49-.12,8.65-.17,12.71-.17,25.46,0,46.3,2.23,65.58,7.03,27.69,6.88,50.13,14.97,70.64,25.44,24.94,12.74,47.9,28.34,68.22,46.38,21.18,18.8,39.59,41,56.26,67.86,22.36,36.02,37.18,76.92,44.07,121.57.48,3.09.7,6.08.87,8.89,76.9.06,152.52.07,216.72.08,0-59.6-.01-119.19-.03-178.79-.01-54.85-.02-109.7-.03-164.54,0-3.39-.39-3.6-2.53-4.77-33.12-18.03-65.46-36.31-95.74-53.5-13.93-7.91-28-16.07-41.6-23.96-11.57-6.71-23.52-13.65-35.31-20.38l-.85-.49c-22.4-12.79-45.55-26.01-68.6-38.32h0c-.8,0-1.6.19-1.88.31-23.43,12.65-47.02,26.07-69.84,39.06l-3.42,1.95c-10.03,5.71-20.21,11.6-30.06,17.3-10.24,5.93-20.83,12.05-31.31,18.01-9.83,5.58-19.84,11.14-29.53,16.52-6.81,3.78-13.83,7.67-20.74,11.56,20.76,4.63,40.92,10.82,60.16,18.48,26.51,10.55,50.11,22.67,72.15,37.05,30.79,20.09,55.88,40.37,76.71,62,23.66,24.57,41.98,48.07,56.03,71.83,9.12,15.44,16.94,31.67,24.51,47.38,2.05,4.26,4.1,8.52,6.18,12.76,13.13,26.82,19.66,54.94,25.74,83.78,1.13,5.39,2.85,13.55-2.55,20.23-5.38,6.65-13.55,6.69-19.51,6.71-1.02,0-2.04,0-3.06,0-1.53,0-7.61-.01-9.12-.01-3.31,0-7.22.01-11.21.12-.29,0-.57.01-.85.01-10.49,0-17.84-5.89-20.19-16.15l-.73-3.21c-2.52-11.08-4.9-21.54-8.33-31.61-5.65-16.58-11.95-32.9-18.72-48.5-5.67-13.08-11.3-23.92-17.2-33.14-22.73-35.54-47.74-64.42-76.45-88.3-20.75-17.25-43.6-32.23-67.92-44.52-16.39-8.28-34.8-14.36-52.6-20.23-2.97-.98-5.94-1.96-8.89-2.95-29.73-9.93-63.46-14.56-106.15-14.56h-2.89c-5.16,0-12.22,0-17.36-5.83C.21,225.37.18,219.36.14,213.56c-.01-2.71,0-5.41.01-8.12.03-5.28.06-10.28-.13-15.26-.41-10.89,4.51-19.28,14.65-24.95,16.38-9.16,33-18.61,49.06-27.75,11.24-6.39,22.85-13,34.31-19.47,7.79-4.39,15.72-8.77,23.4-13,9.35-5.15,19.02-10.48,28.41-15.85,11.39-6.5,22.93-13.22,34.1-19.73,12.32-7.18,25.07-14.6,37.71-21.78,13.71-7.79,27.69-15.59,41.21-23.12,12.27-6.84,24.96-13.91,37.37-20.95,4.19-2.38,8.59-3.58,13.06-3.58,6.65,0,12,2.6,15.93,4.86,12.78,7.36,25.83,14.79,38.46,21.97,8.3,4.72,16.6,9.44,24.89,14.19,7.84,4.48,15.67,9,23.5,13.51,8.7,5.01,17.39,10.03,26.11,15,9.45,5.39,18.91,10.75,28.38,16.12,11.48,6.5,23.35,13.23,35,19.9,12.99,7.44,25.96,14.92,38.93,22.4,14.05,8.1,28.58,16.48,42.89,24.67,5.52,3.16,11.34,6.24,16.96,9.22,2.4,1.27,4.8,2.54,7.2,3.83,9.46,5.08,14.46,13.41,14.44,24.11-.14,111.22-.17,224.31-.21,333.67l-.02,78.27c0,6.69,0,13.61-5.39,18.94-5.33,5.27-11.96,5.27-18.97,5.28-100.71.03-201.42.05-302.13.07-5.97,0-12.7,0-17.94-5.18-4.83-4.78-5.22-10.72-5.63-17l-.03-.46c-.35-5.33-.64-10.72-.91-15.93-.86-16.39-1.68-31.88-4.49-47-6.67-35.87-23.01-69.93-48.57-101.24-24.98-30.59-56.06-54.14-92.37-70-18.07-7.89-37.9-13.63-62.16-17.99l.02,4.71c.06,13.6.13,27.63.07,41.52,41.22,6.77,77.94,26.49,109.17,58.66,21.37,22.01,36.45,46.87,44.8,73.87,6.51,21.04,9.49,44.73,8.88,70.42l-.02.89c-.18,7.87-.33,14.08-5.43,19.28-5.38,5.48-12.29,5.48-19.6,5.48h-.62c-2.26,0-4.51-.01-6.77-.02-2.32-.01-4.64-.02-6.96-.02s-4.59.01-6.89.04h-.44Z"/>
      <path class="cls-1" d="M93.53,183.49c4.35,2.03,6.49,3.63,8.83,4.02,27.41,4.55,54.13,11.83,79.9,22.09,24.36,9.69,47.75,21.43,69.85,35.85,26.89,17.54,52.13,36.95,74.45,60.13,20.47,21.26,39.19,44.03,54.2,69.43,11.25,19.04,20.45,39.32,30.2,59.24,12.51,25.56,18.87,53.11,24.69,80.75,2.16,10.27.94,11.22-9.4,11.27-7.89.03-15.79-.09-23.68.11-4.46.12-6.93-1.21-8.03-6.04-2.77-12.13-5.42-24.37-9.43-36.12-5.7-16.73-12.07-33.28-19.1-49.48-5.22-12.03-11.12-23.94-18.17-34.97-21.91-34.26-47.64-65.14-79.09-91.3-21.81-18.14-45.39-33.5-70.37-46.13-20.01-10.11-41.86-16.76-63.24-23.9-36.41-12.16-74.17-15.34-112.3-15.23-9.39.03-9.64-.27-9.69-9.72-.04-7.94.17-15.88-.13-23.81-.24-6.36,2.58-10.08,8-13.11,27.89-15.6,55.59-31.54,83.42-47.25,17.23-9.72,34.68-19.07,51.87-28.88,24-13.7,47.76-27.84,71.78-41.5,26.1-14.84,52.44-29.26,78.57-44.06,5.91-3.35,10.81-1.81,16.1,1.23,21.08,12.14,42.27,24.1,63.39,36.17,16.56,9.47,33.05,19.06,49.62,28.51,21.1,12.04,42.28,23.94,63.36,36.01,27.31,15.64,54.52,31.45,81.83,47.07,8.04,4.6,16.3,8.83,24.47,13.22,5.04,2.7,7.6,6.46,7.59,12.64-.17,137.32-.18,274.64-.23,411.96,0,10.91-.3,11.22-11.36,11.22-100.71.03-201.42.05-302.12.07-10.09,0-9.97-.45-10.63-10.51-1.43-21.53-1.67-43.35-5.59-64.45-7.44-40.05-25.56-75.58-51.28-107.08-26.49-32.44-58.87-56.94-97.24-73.69-22.07-9.63-45.08-15.46-68.63-19.5-9.89-1.7-11.79.23-11.74,10.46.08,17.56.19,35.11.09,52.67-.03,5.59,2.15,8.04,7.82,8.87,41.43,6.07,75.86,25.31,105.05,55.37,19.26,19.83,33.64,42.58,41.7,68.65,6.59,21.3,8.84,43.73,8.3,66.27-.31,12.95,0,12.96-12.67,12.95-6.94,0-13.88-.1-20.81,0-5.06.07-7.27-2.04-7.3-7.34-.05-9.36-.43-18.72-1.07-28.06-2.71-39.15-20.91-70.18-50.24-95.05-27.43-23.26-59.29-33.82-95.18-33.1-16.58.33-16.84,4.03-16.78-17.1.12-42.33.03-84.65.02-126.98,0-10.21.07-10.11,10.53-10.37,25.19-.63,50.26.37,74.83,6.48,23.42,5.82,46.22,13.35,67.86,24.4,23.73,12.12,45.6,26.86,65.5,44.52,21.25,18.86,38.85,40.84,53.84,64.99,22.29,35.9,35.84,75,42.27,116.69.44,2.84.63,5.74.8,8.61.6,10.36,1.46,11.29,12.04,11.3,73.44.05,146.88.07,220.32.08,8.4,0,10.29-1.75,10.29-10.03,0-115.44-.05-230.87-.05-346.31,0-7.28-2.26-12.35-9.31-16.18-32.04-17.44-63.81-35.38-95.53-53.39-25.73-14.6-51.2-29.65-76.89-44.32-23.41-13.37-46.82-26.74-70.6-39.42-3.42-1.82-9.67-1.22-13.29.74-24.73,13.35-49.15,27.28-73.59,41.18-20.51,11.67-40.85,23.65-61.36,35.31-17.39,9.88-34.95,19.44-52.38,29.25-7.76,4.37-15.37,9-24.85,14.57Z"/>
      <path class="cls-2" d="M20.88,625.95c-6.44,0-11.59-1.9-15.31-5.65-3.76-3.79-5.63-9.06-5.56-15.65.25-25.68.14-50.7,0-71.79-.12-18.5,13.46-22.38,19.31-23.19,4.66-.65,9.32-.97,13.86-.97,38.28,0,69.15,23.12,80.57,60.34,2.88,9.38,2.5,19.11,2.17,27.7-.13,3.3-.25,6.41-.19,9.37.13,7.08-2.78,11.56-5.25,14.07-2.55,2.6-7.22,5.69-14.97,5.69h-.32c-4.74-.05-9.92-.07-16.27-.07-3.58,0-7.17,0-10.75.01-3.28,0-6.57.01-9.85.01-.31.02-.63.03-.95.03-3.51,0-7.03-.02-10.54-.04-3.47-.02-6.93-.04-10.4-.04-5.66,0-10.28.05-14.53.17-.35,0-.68.01-1.01.01Z"/>
      <path class="cls-1" d="M57.36,612.84c-11.94,0-23.88-.22-35.81.09-6.03.16-8.61-1.74-8.54-8.17.23-24,.16-48,0-72-.04-5.9,1.58-9.32,8.09-10.22,38.47-5.33,69.32,14.76,80.22,50.3,3.17,10.33,1.21,22.28,1.41,33.49.09,4.84-2.78,6.57-7.41,6.53-12.65-.13-25.31-.05-37.96-.05,0,.01,0,.02,0,.03Z"/>
    </g>
  </g>
</svg>